<?xml version="1.0" encoding="UTF-8" standalone="no"?>
<!-- Created with Inkscape (http://www.inkscape.org/) -->

<svg
   width="297mm"
   height="210mm"
   viewBox="0 0 297 210"
   version="1.1"
   id="svg1"
   xmlns:xlink="http://www.w3.org/1999/xlink"
   xmlns="http://www.w3.org/2000/svg"
   xmlns:svg="http://www.w3.org/2000/svg"
   xmlns:rdf="http://www.w3.org/1999/02/22-rdf-syntax-ns#"
   xmlns:cc="http://creativecommons.org/ns#"
   xmlns:dc="http://purl.org/dc/elements/1.1/">
  <title
     id="title1">Praten met Verstraeten</title>
  <defs
     id="defs1" />
  <metadata
     id="metadata1">
    <rdf:RDF>
      <cc:Work
         rdf:about="">
        <dc:title>Praten met Verstraeten</dc:title>
        <dc:date>6/3/2026</dc:date>
        <dc:creator>
          <cc:Agent>
            <dc:title>Mika Haenen</dc:title>
          </cc:Agent>
        </dc:creator>
        <dc:rights>
          <cc:Agent>
            <dc:title>reserved to author and WINA toneel, KU Leuven 2025-2026</dc:title>
          </cc:Agent>
        </dc:rights>
        <dc:language>Dutch</dc:language>
        <dc:subject>
          <rdf:Bag>
            <rdf:li>logo</rdf:li>
            <rdf:li>talk show</rdf:li>
          </rdf:Bag>
        </dc:subject>
        <dc:description>Logo for the theater based talk show, performed by WINA toneel, KU Leuven. shadow layered text balloons with the text &quot;Praten met VERSTRAETEN&quot;</dc:description>
      </cc:Work>
    </rdf:RDF>
  </metadata>
  <g
     id="layer1">
    <g
       id="layer5"
       style="display:inline">
      <path
         id="path2-2"
         style="display:inline;fill:#d2ae51;fill-opacity:1;stroke-width:15.6614"
         d="M 265.13307,44.382501 36.03776,58.492627 c -7.975215,0.474597 -13.886254,7.595252 -12.88485,15.521569 l 14.110123,74.870864 c 0.873818,6.90291 6.745153,12.07859 13.703153,12.07956 l 186.708064,-0.29924 c 5.45014,-8.4e-4 10.39032,-3.20621 12.61211,-8.18294 L 278.56344,63.8007 C 282.7838,54.339699 275.4747,43.771882 265.13307,44.382501 Z" />
    </g>
  </g>
  <g
     id="layer2"
     style="display:none">
    <circle
       style="display:inline;fill:none;fill-opacity:1;stroke:#000000;stroke-width:0.264999;stroke-dasharray:none;stroke-opacity:1"
       id="path23"
       cx="103.61661"
       cy="105"
       r="12.462445" />
    <circle
       style="display:inline;fill:none;fill-opacity:1;stroke:#000000;stroke-width:0.264999;stroke-dasharray:none;stroke-opacity:1"
       id="path23-5"
       cx="128.8065"
       cy="105"
       r="12.462445" />
    <circle
       style="display:inline;fill:none;fill-opacity:1;stroke:#000000;stroke-width:0.264999;stroke-dasharray:none;stroke-opacity:1"
       id="path23-5-7"
       cx="128.8065"
       cy="129.9249"
       r="12.462445" />
    <circle
       style="display:inline;fill:none;fill-opacity:1;stroke:#000000;stroke-width:0.264999;stroke-dasharray:none;stroke-opacity:1"
       id="path23-5-8"
       cx="153.9964"
       cy="105"
       r="12.462445" />
    <circle
       style="display:inline;fill:none;fill-opacity:1;stroke:#000000;stroke-width:0.264999;stroke-dasharray:none;stroke-opacity:1"
       id="path23-5-8-9"
       cx="178.9213"
       cy="105"
       r="12.462445" />
    <circle
       style="display:inline;fill:none;fill-opacity:1;stroke:#000000;stroke-width:0.264999;stroke-dasharray:none;stroke-opacity:1"
       id="path23-5-8-9-1"
       cx="178.9213"
       cy="79.810112"
       r="12.462445" />
    <circle
       style="display:inline;fill:none;fill-opacity:1;stroke:#000000;stroke-width:0.264999;stroke-dasharray:none;stroke-opacity:1"
       id="path23-5-8-9-1-4"
       cx="178.9213"
       cy="54.620224"
       r="12.462445" />
    <circle
       style="display:inline;fill:none;fill-opacity:1;stroke:#000000;stroke-width:0.264999;stroke-dasharray:none;stroke-opacity:1"
       id="path23-5-8-9-1-4-8"
       cx="204.24368"
       cy="42.02528"
       r="12.462445" />
    <circle
       style="display:inline;fill:none;fill-opacity:1;stroke:#000000;stroke-width:0.264999;stroke-dasharray:none;stroke-opacity:1"
       id="path23-4"
       cx="103.61661"
       cy="79.810112"
       r="12.462445" />
    <circle
       style="display:inline;fill:none;fill-opacity:1;stroke:#000000;stroke-width:0.264999;stroke-dasharray:none;stroke-opacity:1"
       id="path23-4-2"
       cx="91.02166"
       cy="54.620224"
       r="12.462445" />
    <path
       style="display:inline;fill:none;fill-opacity:1;stroke:#000000;stroke-width:0.264999;stroke-dasharray:none;stroke-opacity:1"
       d="M 91.021663,117.38954 V 36.470623"
       id="path24" />
    <path
       style="display:inline;fill:none;fill-opacity:1;stroke:#000000;stroke-width:0.264999;stroke-dasharray:none;stroke-opacity:1"
       d="M 191.51624,117.59494 V 14.658049"
       id="path25" />
    <path
       style="display:inline;fill:none;fill-opacity:1;stroke:#000000;stroke-width:0.264999;stroke-dasharray:none;stroke-opacity:1"
       d="M 204.24368,42.025278 V 54.487725"
       id="path36" />
    <path
       style="fill:none;fill-opacity:1;stroke:#000000;stroke-width:0.264999;stroke-dasharray:none;stroke-opacity:1"
       d="M 91.021658,54.620223 H 103.4841"
       id="path40" />
    <path
       style="fill:none;fill-opacity:1;stroke:#000000;stroke-width:0.264999;stroke-dasharray:none;stroke-opacity:1"
       d="m 178.92129,105 v 12.46244"
       id="path41" />
    <path
       style="fill:none;fill-opacity:1;stroke:#000000;stroke-width:0.264999;stroke-dasharray:none;stroke-opacity:1"
       d="m 103.61719,111.23047 v 53.86608"
       id="path42" />
  </g>
  <g
     id="g36">
    <path
       id="path27"
       style="display:none;fill:none;fill-opacity:1;stroke:#000000;stroke-width:0.264999;stroke-dasharray:none;stroke-opacity:1"
       d="M 202.86914,29.671875 89.646484,42.267578 A 12.430478,12.430478 0 0 0 78.962891,57.636719 l 12.595703,50.378911 a 12.430478,12.430478 0 0 0 12.058596,9.41406 h 75.30468 a 12.430478,12.430478 0 0 0 11.53125,-7.79297 L 215.77539,46.662109 A 12.430478,12.430478 0 0 0 202.86914,29.671875 Z" />
    <path
       id="path39"
       style="display:none;fill:none;stroke:#000000;stroke-width:0.264999"
       d="M 204.24414,48.255859 91.021484,54.621094 103.61719,105 h 75.30469 z" />
    <path
       id="path38"
       style="display:none;fill:none;stroke:#000000;stroke-width:0.264999"
       d="M 203.45898,35.818359 102.69922,42.183594 A 12.463692,12.463692 0 0 0 91.021484,54.654297 l 0.132813,50.378903 a 12.463692,12.463692 0 0 0 12.462893,12.42969 h 75.30468 a 12.463692,12.463692 0 0 0 11.38086,-7.38476 L 215.625,53.333984 A 12.463692,12.463692 0 0 0 203.45898,35.818359 Z" />
    <path
       id="path26"
       style="display:none;fill:none;fill-opacity:1;stroke:#000000;stroke-width:0.264999;stroke-dasharray:none;stroke-opacity:1"
       d="M 203.54687,35.845703 90.324219,42.210937 A 12.430931,12.430931 0 0 0 78.962891,57.636719 l 12.595703,50.378911 a 12.430931,12.430931 0 0 0 12.058596,9.41406 h 75.30468 a 12.430931,12.430931 0 0 0 11.35157,-7.36524 L 215.5957,53.320312 A 12.430931,12.430931 0 0 0 203.54687,35.845703 Z" />
  </g>
  <g
     id="layer4">
    <g
       id="g2">
      <path
         id="path2"
         style="display:inline;fill:#27466e;fill-opacity:1;stroke:#27466e;stroke-width:7.065;stroke-dasharray:none;stroke-opacity:1"
         d="M 203.875,42.035156 96.882812,48.400391 a 6.2318429,6.2318429 0 0 0 -5.8125,7.001953 l 6.365235,50.378906 a 6.2318429,6.2318429 0 0 0 6.181643,5.44922 h 75.30468 a 6.2318429,6.2318429 0 0 0 5.68946,-3.69141 L 209.93359,50.794922 A 6.2318429,6.2318429 0 0 0 203.875,42.035156 Z"
         transform="matrix(0.60628588,0,0,0.60628588,6.8581621,42.550243)" />
      <path
         id="path37-8"
         style="display:inline;fill:#538bdd;fill-opacity:1;stroke:#538bdd;stroke-width:7.065;stroke-dasharray:none;stroke-opacity:1"
         d="M 203.875,42.035156 96.882812,48.400391 a 6.2318429,6.2318429 0 0 0 -5.8125,7.001953 l 6.365235,50.378906 a 6.2318429,6.2318429 0 0 0 6.181643,5.44922 h 75.30468 a 6.2318429,6.2318429 0 0 0 5.68946,-3.69141 L 209.93359,50.794922 A 6.2318429,6.2318429 0 0 0 203.875,42.035156 Z"
         transform="matrix(0.60628588,0,0,0.60628588,-3.4268699,45.599255)" />
      <path
         style="fill:#cfe4f9;fill-opacity:1;stroke:#538bdd;stroke-width:0;stroke-dasharray:none;stroke-opacity:1"
         d="m 49.092397,116.0681 10.041556,23.64517 8.603659,-24.53485 z"
         id="path1" />
      <text
         xml:space="preserve"
         style="font-style:normal;font-variant:normal;font-weight:normal;font-stretch:normal;font-size:38.8056px;font-family:'Tilt Warp';-inkscape-font-specification:'Tilt Warp, Normal';font-variant-ligatures:normal;font-variant-caps:normal;font-variant-numeric:normal;font-variant-east-asian:normal;text-align:start;writing-mode:lr-tb;direction:ltr;text-anchor:start;fill:#ca7535;fill-opacity:1;stroke:none;stroke-width:0;stroke-dasharray:none;stroke-opacity:1"
         x="43.609631"
         y="140.63972"
         id="text1"><tspan
           id="tspan1"
           style="font-style:normal;font-variant:normal;font-weight:normal;font-stretch:normal;font-size:38.8056px;font-family:'Tilt Warp';-inkscape-font-specification:'Tilt Warp, Normal';font-variant-ligatures:normal;font-variant-caps:normal;font-variant-numeric:normal;font-variant-east-asian:normal;fill:#ca7535;fill-opacity:1;stroke:none;stroke-width:0;stroke-dasharray:none;stroke-opacity:1"
           x="43.609631"
           y="140.63972">V</tspan></text>
      <path
         id="path37"
         style="display:inline;fill:#cfe4f9;fill-opacity:1;stroke:#cfe4f9;stroke-width:7.065;stroke-dasharray:none;stroke-opacity:1"
         d="M 203.875,42.035156 96.882812,48.400391 a 6.2318429,6.2318429 0 0 0 -5.8125,7.001953 l 6.365235,50.378906 a 6.2318429,6.2318429 0 0 0 6.181643,5.44922 h 75.30468 a 6.2318429,6.2318429 0 0 0 5.68946,-3.69141 L 209.93359,50.794922 A 6.2318429,6.2318429 0 0 0 203.875,42.035156 Z"
         transform="matrix(0.60628588,0,0,0.60628588,-13.729242,48.630644)" />
      <path
         id="text42"
         style="font-size:49.3889px;font-family:'Tilt Warp';-inkscape-font-specification:'Tilt Warp, Normal';display:none;fill:#cd7f43;fill-opacity:1;stroke-width:0.265"
         d="m 128.01367,130.51562 c -2.61988,0 -4.98806,0.40485 -7.0957,1.22071 a 0.50346706,0.50346706 0 0 0 -0.002,0 c -2.08116,0.81881 -3.76409,2.04422 -5.00782,3.66797 -1.25648,1.64042 -1.88281,3.65833 -1.88281,5.98632 0,1.875 0.35926,3.47971 1.10352,4.79102 a 0.50346706,0.50346706 0 0 0 0.002,0.006 c 0.72585,1.24433 1.66994,2.27322 2.81641,3.07227 a 0.50346706,0.50346706 0 0 0 0.0137,0.01 c 1.14537,0.74112 2.34169,1.36704 3.58984,1.87305 a 0.50346706,0.50346706 0 0 0 0.0117,0.004 c 1.22384,0.46307 2.38089,0.87761 3.47461,1.24219 a 0.50346706,0.50346706 0 0 0 0.006,0 c 1.08897,0.35231 1.95423,0.74879 2.5918,1.17383 a 0.50346706,0.50346706 0 0 0 0.0137,0.01 c 0.58815,0.36409 0.79883,0.72827 0.79883,1.25195 0,0.38758 -0.10593,0.67076 -0.3418,0.9375 -0.23467,0.26539 -0.62264,0.51068 -1.1875,0.70508 -1.14711,0.36147 -2.76259,0.45423 -4.82617,0.22851 -2.05714,-0.225 -4.3589,-0.7915 -6.89844,-1.70312 a 0.50346706,0.50346706 0 0 0 -0.67383,0.47461 v 4.24609 4.24805 a 0.50346706,0.50346706 0 0 0 0.37305,0.48633 c 2.83458,0.76699 5.62452,1.18505 8.36719,1.25195 2.74457,0.0998 5.23757,-0.2012 7.47265,-0.91211 2.28162,-0.71513 4.11966,-1.88744 5.4707,-3.51563 1.40067,-1.68079 2.09375,-3.85644 2.09375,-6.44726 0,-1.97046 -0.35635,-3.62303 -1.10351,-4.93945 -0.72595,-1.31196 -1.68818,-2.38013 -2.87305,-3.18165 -1.11683,-0.81029 -2.30516,-1.45663 -3.56054,-1.93164 -1.22776,-0.49732 -2.40946,-0.9127 -3.54297,-1.24609 l 0.0176,0.004 c -1.06037,-0.35345 -1.91518,-0.73525 -2.56055,-1.13477 -0.59347,-0.36739 -0.79883,-0.71882 -0.79883,-1.20117 0,-0.3561 0.0952,-0.61359 0.30664,-0.85547 0.21147,-0.24188 0.56277,-0.4665 1.08203,-0.64453 a 0.50346706,0.50346706 0 0 0 0.0117,-0.004 c 1.03929,-0.38602 2.49625,-0.49221 4.35742,-0.26758 a 0.50346706,0.50346706 0 0 0 0.01,0 c 1.87866,0.19105 3.95382,0.76788 6.22265,1.74024 a 0.50346706,0.50346706 0 0 0 0.70313,-0.46289 v -4.24805 -4.24609 a 0.50346706,0.50346706 0 0 0 -0.36524,-0.48438 c -2.80585,-0.80167 -5.53729,-1.20507 -8.18945,-1.20508 z m -69.292967,0.34571 a 0.50346706,0.50346706 0 0 0 -0.503906,0.5039 v 16.79102 16.79297 a 0.50346706,0.50346706 0 0 0 0.503906,0.5039 h 10.076172 10.074219 a 0.50346706,0.50346706 0 0 0 0.503906,-0.5039 v -3.85156 -3.85352 a 0.50346706,0.50346706 0 0 0 -0.503906,-0.50391 H 73.09375 67.867187 v -2.41015 -2.41016 h 4.78125 5.234375 a 0.50346706,0.50346706 0 0 0 0.503907,-0.5039 v -3.75391 -3.70313 a 0.50346706,0.50346706 0 0 0 -0.503907,-0.5039 h -5.234375 -4.78125 v -1.91602 -1.96679 h 5.226563 5.777344 A 0.50346706,0.50346706 0 0 0 79.375,139.06836 v -3.85156 -3.85157 a 0.50346706,0.50346706 0 0 0 -0.503906,-0.5039 H 68.796875 Z m 26.078125,0 a 0.50346706,0.50346706 0 0 0 -0.503906,0.5039 v 16.79102 16.79297 a 0.50346706,0.50346706 0 0 0 0.503906,0.5039 h 4.345703 4.296875 a 0.50346706,0.50346706 0 0 0 0.503906,-0.5039 v -5.63086 -5.12695 h 1.175782 1.43164 c 1.002237,1.7593 1.992365,3.54379 2.964844,5.36328 a 0.50346706,0.50346706 0 0 0 0.002,0.008 c 1.053699,1.90985 2.090469,3.78674 3.111329,5.63086 a 0.50346706,0.50346706 0 0 0 0.44141,0.25976 h 4.83984 4.83984 a 0.50346706,0.50346706 0 0 0 0.43164,-0.76171 c -1.31589,-2.20414 -2.64725,-4.42501 -3.99609,-6.66211 l -0.004,-0.008 c -1.24739,-2.15169 -2.49668,-4.26858 -3.74414,-6.36132 1.2376,-0.95871 2.27017,-2.13014 3.01953,-3.56641 0.83126,-1.59326 1.24024,-3.40934 1.24024,-5.41992 0,-2.34736 -0.5505,-4.42285 -1.65625,-6.1875 -1.06967,-1.79219 -2.59744,-3.18109 -4.55078,-4.14063 -1.95622,-0.99405 -4.227058,-1.48437 -6.791018,-1.48437 h -5.976563 z m 55.759762,0 a 0.50346706,0.50346706 0 0 0 -0.5039,0.5039 v 3.95118 3.90039 a 0.50346706,0.50346706 0 0 0 0.5039,0.5039 h 3.80274 3.29883 v 12.38672 12.8418 a 0.50346706,0.50346706 0 0 0 0.5039,0.5039 h 4.34571 4.29687 a 0.50346706,0.50346706 0 0 0 0.50391,-0.5039 v -12.8418 -12.38672 h 3.29882 3.75391 a 0.50346706,0.50346706 0 0 0 0.50391,-0.5039 v -3.90039 -3.95118 a 0.50346706,0.50346706 0 0 0 -0.50391,-0.5039 h -11.90234 z m 28.4961,0 a 0.50346706,0.50346706 0 0 0 -0.50391,0.5039 v 16.79102 16.79297 a 0.50346706,0.50346706 0 0 0 0.50391,0.5039 h 4.34765 4.29688 a 0.50346706,0.50346706 0 0 0 0.5039,-0.5039 v -5.63086 -5.12695 h 1.17383 1.43164 c 1.00252,1.75951 1.99443,3.54401 2.9668,5.36328 a 0.50346706,0.50346706 0 0 0 0.002,0.008 c 1.05371,1.90985 2.09047,3.78674 3.11133,5.63086 a 0.50346706,0.50346706 0 0 0 0.44141,0.25976 h 4.83984 4.5918 0.24805 4.0996 4.34571 a 0.50346706,0.50346706 0 0 0 0.48047,-0.35351 c 0.33074,-1.05837 0.6438,-2.11571 0.9414,-3.17383 a 0.50346706,0.50346706 0 0 0 0.002,-0.004 c 0.26205,-0.96086 0.54191,-1.90464 0.83007,-2.83984 h 5.25391 5.30273 c 0.28771,0.93481 0.56594,1.87852 0.82813,2.83984 a 0.50346706,0.50346706 0 0 0 0.002,0.004 c 0.29775,1.05868 0.61279,2.116 0.94336,3.17383 a 0.50346706,0.50346706 0 0 0 0.48047,0.35351 h 4.3457 4.34571 a 0.50346706,0.50346706 0 0 0 0.48047,-0.65234 c -1.71208,-5.53131 -3.44052,-11.12987 -5.18555,-16.79297 l 0.002,0.002 c -1.71247,-5.66433 -3.4262,-11.26037 -5.13867,-16.79297 a 0.50346706,0.50346706 0 0 0 -0.48047,-0.35547 h -5.92578 -5.87695 a 0.50346706,0.50346706 0 0 0 -0.48047,0.35547 c -1.71218,5.53166 -3.44234,11.12745 -5.1875,16.79101 a 0.50346706,0.50346706 0 0 0 -0.002,0.002 c -1.57385,5.20576 -3.14688,10.34331 -4.72071,15.4375 -1.07459,-1.79716 -2.15303,-3.59857 -3.25,-5.41797 l -0.004,-0.008 c -1.2474,-2.15169 -2.49669,-4.26858 -3.74414,-6.36132 1.23732,-0.95881 2.26839,-2.13049 3.01757,-3.56641 0.83111,-1.59296 1.24219,-3.40901 1.24219,-5.41992 0,-2.34736 -0.5505,-4.42285 -1.65625,-6.1875 -1.06968,-1.79219 -2.59743,-3.18109 -4.55078,-4.14063 -1.95621,-0.99405 -4.22706,-1.48437 -6.79102,-1.48437 h -5.97656 z m 63.36718,0 a 0.50346706,0.50346706 0 0 0 -0.5039,0.5039 v 16.79102 16.79297 a 0.50346706,0.50346706 0 0 0 0.5039,0.5039 h 10.07422 10.07618 a 0.50346706,0.50346706 0 0 0 0.5039,-0.5039 v -3.85156 -3.85352 a 0.50346706,0.50346706 0 0 0 -0.5039,-0.50391 h -5.7793 -5.22461 v -2.41015 -2.41016 h 4.78125 5.23437 a 0.50346706,0.50346706 0 0 0 0.50391,-0.5039 v -3.75391 -3.70313 a 0.50346706,0.50346706 0 0 0 -0.50391,-0.5039 h -5.23437 -4.78125 v -1.91602 -1.96679 h 5.22461 5.7793 a 0.50346706,0.50346706 0 0 0 0.5039,-0.50391 v -3.85156 -3.85157 a 0.50346706,0.50346706 0 0 0 -0.5039,-0.5039 h -10.07618 z m 24.34766,0 a 0.50346706,0.50346706 0 0 0 -0.50391,0.5039 v 3.95118 3.90039 a 0.50346706,0.50346706 0 0 0 0.50391,0.5039 h 3.80274 3.30078 v 12.38672 12.8418 a 0.50346706,0.50346706 0 0 0 0.5039,0.5039 h 4.34571 4.29687 a 0.50346706,0.50346706 0 0 0 0.50391,-0.5039 v -12.8418 -12.38672 h 3.29883 3.7539 a 0.50346706,0.50346706 0 0 0 0.50391,-0.5039 v -3.90039 -3.95118 a 0.50346706,0.50346706 0 0 0 -0.50391,-0.5039 h -11.90234 z m 28.49805,0 a 0.50346706,0.50346706 0 0 0 -0.50391,0.5039 v 16.79102 16.79297 a 0.50346706,0.50346706 0 0 0 0.50391,0.5039 h 10.07617 10.07422 a 0.50346706,0.50346706 0 0 0 0.5039,-0.5039 v -3.85156 -3.85352 a 0.50346706,0.50346706 0 0 0 -0.5039,-0.50391 h -5.77735 -5.22656 v -2.41015 -2.41016 h 4.78125 5.23438 a 0.50346706,0.50346706 0 0 0 0.5039,-0.5039 v -3.75391 -3.70313 a 0.50346706,0.50346706 0 0 0 -0.5039,-0.5039 h -5.23438 -4.78125 v -1.91602 -1.96679 h 5.22656 5.77735 a 0.50346706,0.50346706 0 0 0 0.5039,-0.50391 v -3.85156 -3.85157 a 0.50346706,0.50346706 0 0 0 -0.5039,-0.5039 h -10.07422 z m 26.07812,0 a 0.50346706,0.50346706 0 0 0 -0.5039,0.5039 v 16.79102 16.79297 a 0.50346706,0.50346706 0 0 0 0.5039,0.5039 h 4.2461 4.24804 a 0.50346706,0.50346706 0 0 0 0.50391,-0.5039 v -9.48242 -7.54493 c 1.43861,2.57935 2.88113,5.16527 4.3418,7.78907 a 0.50346706,0.50346706 0 0 0 0.002,0.004 c 1.81038,3.19284 3.58755,6.35355 5.33203,9.48047 a 0.50346706,0.50346706 0 0 0 0.43945,0.25781 h 4.34571 4.3457 a 0.50346706,0.50346706 0 0 0 0.50391,-0.5039 v -16.79297 -16.79102 a 0.50346706,0.50346706 0 0 0 -0.50391,-0.5039 h -4.24609 -4.24805 a 0.50346706,0.50346706 0 0 0 -0.50391,0.5039 v 9.48243 7.55859 c -1.44577,-2.58385 -2.90029,-5.17431 -4.39062,-7.80273 l -0.002,-0.004 c -1.77738,-3.19269 -3.53878,-6.35368 -5.28321,-9.48047 a 0.50346706,0.50346706 0 0 0 -0.43945,-0.25781 h -4.3457 z m -217.400388,8.81054 h 1.125 1.63086 c 1.123036,0 1.897506,0.30156 2.449219,0.88086 a 0.50346706,0.50346706 0 0 0 0.0098,0.008 c 0.6011,0.60109 0.888674,1.31819 0.888674,2.26172 0,0.91483 -0.26552,1.6471 -0.810549,2.28125 -0.536841,0.5917 -1.174977,0.87109 -2.042969,0.87109 h -1.876953 -1.373047 v -3.15234 z m 84.257808,0 h 1.125 1.63086 c 1.12304,0 1.89751,0.30156 2.44922,0.88086 a 0.50346706,0.50346706 0 0 0 0.01,0.008 c 0.6011,0.60109 0.88867,1.31819 0.88867,2.26172 0,0.91482 -0.26552,1.6471 -0.81055,2.28125 -0.53685,0.59171 -1.17497,0.87109 -2.04297,0.87109 h -1.87695 -1.37305 v -3.15234 z m 34.80274,1.55469 c 0.41221,1.41434 0.82246,2.82811 1.25195,4.25977 0.52733,1.75775 1.03591,3.49698 1.53711,5.22851 h -2.83203 -2.7832 c 0.50046,-1.72897 1.00864,-3.46558 1.53515,-5.2207 l 0.002,-0.008 c 0.45331,-1.43168 0.87043,-2.84536 1.28906,-4.25977 z"
         transform="matrix(0.60628588,0,0,0.60628588,32.051869,39.944715)" />
      <path
         id="text42-1"
         style="font-size:49.3889px;font-family:'Tilt Warp';-inkscape-font-specification:'Tilt Warp, Normal';display:none;fill:#cd7f43;fill-opacity:1;stroke-width:0.265"
         d="m 177.85742,56.876953 a 0.49179486,0.49179486 0 0 0 -0.49219,0.492188 v 16.792968 16.791016 a 0.49179486,0.49179486 0 0 0 0.49219,0.492187 h 4.3457 4.29688 a 0.49179486,0.49179486 0 0 0 0.49219,-0.492187 v -5.185547 -4.693359 h 1.63281 2.17187 c 2.33908,0 4.44871,-0.493472 6.30274,-1.488282 l 0.004,-0.002 c 1.88475,-0.99466 3.37522,-2.416847 4.43945,-4.236328 1.10101,-1.825887 1.64844,-3.944856 1.64844,-6.322265 0,-2.411568 -0.54649,-4.550559 -1.65039,-6.378907 -1.09987,-1.821646 -2.64229,-3.239565 -4.59375,-4.232422 -1.95634,-1.028378 -4.24491,-1.537109 -6.8418,-1.537109 h -6.12305 z m 29.28711,0 a 0.49179486,0.49179486 0 0 0 -0.49219,0.492188 v 16.792968 16.791016 a 0.49179486,0.49179486 0 0 0 0.49219,0.492187 h 4.3457 4.29688 a 0.49179486,0.49179486 0 0 0 0.49219,-0.492187 v -5.628906 -5.138672 h 1.1875 1.4375 c 1.00348,1.761361 1.99509,3.549419 2.96875,5.371094 a 0.49179486,0.49179486 0 0 0 0.004,0.0059 c 1.05378,1.909971 2.09055,3.784916 3.11133,5.628906 a 0.49179486,0.49179486 0 0 0 0.42969,0.253906 h 4.8418 4.59179 0.24805 4.09961 4.3457 a 0.49179486,0.49179486 0 0 0 0.46875,-0.345703 c 0.33071,-1.058262 0.64385,-2.115816 0.94141,-3.173828 a 0.49179486,0.49179486 0 0 0 0.002,-0.0039 c 0.26281,-0.963612 0.54298,-1.909878 0.83203,-2.847656 h 5.26172 5.3125 c 0.28905,0.937782 0.56923,1.884049 0.83203,2.847656 a 0.49179486,0.49179486 0 0 0 0.002,0.0039 c 0.29757,1.058006 0.61069,2.115564 0.9414,3.173828 a 0.49179486,0.49179486 0 0 0 0.46875,0.345703 h 4.34766 4.3457 a 0.49179486,0.49179486 0 0 0 0.4707,-0.636718 c -1.7119,-5.530772 -3.44071,-11.126615 -5.18554,-16.789063 v -0.002 c -1.71227,-5.663658 -3.42444,-11.26095 -5.13672,-16.792969 a 0.49179486,0.49179486 0 0 0 -0.4707,-0.347656 h -5.92774 -5.87695 a 0.49179486,0.49179486 0 0 0 -0.47071,0.347656 c -1.71222,5.531786 -3.44042,11.129541 -5.18554,16.792969 a 0.49179486,0.49179486 0 0 0 0,0.002 c -1.57623,5.213685 -3.15423,10.357364 -4.73047,15.458985 -1.07919,-1.803751 -2.16262,-3.611361 -3.26367,-5.4375 l -0.004,-0.0078 c -1.24885,-2.15419 -2.49914,-4.274034 -3.74805,-6.369141 1.23938,-0.958892 2.27164,-2.13505 3.02149,-3.572265 0.83007,-1.590978 1.24219,-3.402766 1.24219,-5.41211 0,-2.345551 -0.54971,-4.420793 -1.6543,-6.183593 -1.06734,-1.788269 -2.59261,-3.174279 -4.54102,-4.132813 -1.95568,-0.994996 -4.22813,-1.486328 -6.79297,-1.486328 h -5.9746 z m 60.15625,0 a 0.49179486,0.49179486 0 0 0 -0.49219,0.492188 v 3.951171 3.902344 a 0.49179486,0.49179486 0 0 0 0.49219,0.492188 h 3.80274 3.31054 v 12.398437 12.839844 a 0.49179486,0.49179486 0 0 0 0.49219,0.492187 h 4.3457 4.29688 a 0.49179486,0.49179486 0 0 0 0.49219,-0.492187 V 78.113281 65.714844 h 3.31054 3.75391 a 0.49179486,0.49179486 0 0 0 0.49219,-0.492188 v -3.902344 -3.951171 a 0.49179486,0.49179486 0 0 0 -0.49219,-0.492188 h -11.90235 z m 28.49805,0 a 0.49179486,0.49179486 0 0 0 -0.49219,0.492188 v 16.792968 16.791016 a 0.49179486,0.49179486 0 0 0 0.49219,0.492187 h 10.07422 10.07617 a 0.49179486,0.49179486 0 0 0 0.49219,-0.492187 V 87.101562 83.25 a 0.49179486,0.49179486 0 0 0 -0.49219,-0.492188 h -5.7793 -5.23633 v -2.421875 -2.421875 h 4.79297 5.23438 a 0.49179486,0.49179486 0 0 0 0.49218,-0.492187 v -3.753906 -3.705078 a 0.49179486,0.49179486 0 0 0 -0.49218,-0.492188 h -5.23438 -4.79297 v -1.927734 -1.976563 h 5.23633 5.7793 a 0.49179486,0.49179486 0 0 0 0.49219,-0.492187 v -3.851563 -3.853515 a 0.49179486,0.49179486 0 0 0 -0.49219,-0.492188 h -10.07617 z m 26.07617,0 a 0.49179486,0.49179486 0 0 0 -0.49219,0.492188 v 16.792968 16.791016 a 0.49179486,0.49179486 0 0 0 0.49219,0.492187 h 4.24805 4.24804 a 0.49179486,0.49179486 0 0 0 0.49219,-0.492187 v -9.482422 -7.587891 c 1.44489,2.591423 2.8936,5.189694 4.36133,7.826172 a 0.49179486,0.49179486 0 0 0 0.002,0.0039 c 1.81038,3.19286 3.58754,6.35353 5.33203,9.480468 a 0.49179486,0.49179486 0 0 0 0.42969,0.251953 h 4.34766 4.3457 a 0.49179486,0.49179486 0 0 0 0.49219,-0.492187 V 74.162109 57.369141 a 0.49179486,0.49179486 0 0 0 -0.49219,-0.492188 h -4.24805 -4.24804 a 0.49179486,0.49179486 0 0 0 -0.49219,0.492188 v 9.482421 7.603516 c -1.45275,-2.596464 -2.91436,-5.200301 -4.41211,-7.841797 l -0.002,-0.0039 c -1.7773,-3.192546 -3.53676,-6.353541 -5.28125,-9.480469 a 0.49179486,0.49179486 0 0 0 -0.42969,-0.251953 h -4.34766 z m -134.88281,8.738281 h 1.28711 1.82617 c 1.15177,0 1.95882,0.328229 2.55078,0.976563 0.60788,0.665765 0.9082,1.477173 0.9082,2.53125 0,1.022913 -0.28749,1.827489 -0.86718,2.49414 a 0.49179486,0.49179486 0 0 0 -0.008,0.0098 c -0.54191,0.656002 -1.19037,0.955078 -2.08984,0.955078 h -2.07422 -1.5332 v -3.458984 z m 29.28711,0.05078 h 1.13867 1.6289 c 1.12524,0 1.90709,0.303217 2.46094,0.884765 a 0.49179486,0.49179486 0 0 0 0.008,0.0078 c 0.6032,0.603196 0.89258,1.323454 0.89258,2.269531 0,0.918243 -0.26921,1.653627 -0.81836,2.291016 -0.53817,0.592122 -1.17851,0.871093 -2.04882,0.871093 h -1.87696 -1.38476 v -3.162109 z m 34.8164,1.523437 c 0.41578,1.426982 0.83029,2.852263 1.26367,4.296875 0.52873,1.762436 1.03852,3.509557 1.54102,5.246094 h -2.84961 -2.79883 c 0.50176,-1.733981 1.01115,-3.478475 1.53907,-5.238281 l 0.002,-0.0078 c 0.45734,-1.444408 0.88004,-2.869755 1.30273,-4.296875 z"
         transform="matrix(0.60628588,0,0,0.60628588,32.051869,39.944715)" />
      <path
         id="text42-1-7"
         style="font-size:42.3333px;font-family:'Tilt Warp';-inkscape-font-specification:'Tilt Warp, Normal';display:none;fill:#cd7f43;fill-opacity:1;stroke-width:0.265"
         d="m 177.85742,96.648437 a 0.61506956,0.61506956 0 0 0 -0.61523,0.615235 v 14.392578 14.39453 a 0.61506956,0.61506956 0 0 0 0.61523,0.61524 h 3.51367 3.47071 a 0.61506956,0.61506956 0 0 0 0.61523,-0.61524 v -9.56836 -4.87695 c 0.44357,1.67602 0.88679,3.33198 1.33008,5.03125 a 0.61506956,0.61506956 0 0 0 0,0.002 c 0.84686,3.21805 1.69407,6.4084 2.54101,9.57031 a 0.61506956,0.61506956 0 0 0 0.59375,0.45704 h 3.21875 3.2168 a 0.61506956,0.61506956 0 0 0 0.5957,-0.45899 c 0.84648,-3.21658 1.70541,-6.46136 2.58008,-9.73437 0.46493,-1.75471 0.91618,-3.4664 1.37305,-5.19727 v 5.03906 9.73633 a 0.61506956,0.61506956 0 0 0 0.61523,0.61524 h 3.55664 3.59766 a 0.61506956,0.61506956 0 0 0 0.61524,-0.61914 c -0.0283,-4.74124 -0.0558,-9.54029 -0.084,-14.39454 -0.0283,-4.85435 -0.0577,-9.65133 -0.0859,-14.392574 a 0.61506956,0.61506956 0 0 0 -0.61523,-0.611329 h -5.20703 -5.24805 a 0.61506956,0.61506956 0 0 0 -0.59375,0.453125 c -0.7901,2.878239 -1.59566,5.798588 -2.41406,8.761718 a 0.61506956,0.61506956 0 0 0 0,0.004 c -0.59393,2.20604 -1.18781,4.38078 -1.78125,6.55469 -0.59924,-2.17323 -1.19964,-4.34784 -1.81445,-6.55274 l -0.002,-0.008 c -0.79035,-2.96366 -1.59341,-5.886059 -2.41211,-8.765627 a 0.61506956,0.61506956 0 0 0 -0.59179,-0.447266 h -5.29297 z m 36.32227,0 a 0.61506956,0.61506956 0 0 0 -0.61524,0.615235 v 14.392578 14.39453 a 0.61506956,0.61506956 0 0 0 0.61524,0.61524 h 8.63476 8.63672 a 0.61506956,0.61506956 0 0 0 0.61524,-0.61524 v -3.30273 -3.30078 a 0.61506956,0.61506956 0 0 0 -0.61524,-0.61524 h -4.95312 -4.29493 v -1.88281 -1.88281 h 3.91407 4.48828 a 0.61506956,0.61506956 0 0 0 0.61523,-0.61524 v -3.21679 -3.17579 a 0.61506956,0.61506956 0 0 0 -0.61523,-0.61523 h -4.48828 -3.91407 v -1.45898 -1.50196 h 4.29493 4.95312 a 0.61506956,0.61506956 0 0 0 0.61524,-0.61523 v -3.30078 -3.302738 a 0.61506956,0.61506956 0 0 0 -0.61524,-0.615235 h -8.63672 z m 20.86914,0 a 0.61506956,0.61506956 0 0 0 -0.61524,0.615235 v 3.386718 3.34375 a 0.61506956,0.61506956 0 0 0 0.61524,0.61524 h 3.25976 2.64453 v 10.43359 11.00781 a 0.61506956,0.61506956 0 0 0 0.61524,0.61524 h 3.72656 3.68164 a 0.61506956,0.61506956 0 0 0 0.61524,-0.61524 v -11.00781 -10.43359 h 2.64453 3.21875 a 0.61506956,0.61506956 0 0 0 0.61523,-0.61524 v -3.34375 -3.386718 a 0.61506956,0.61506956 0 0 0 -0.61523,-0.615235 h -10.20313 z"
         transform="matrix(0.60628588,0,0,0.60628588,32.051869,39.944715)" />
    </g>
    <path
       style="font-size:28.2222px;font-family:'Tilt Warp';-inkscape-font-specification:'Tilt Warp, Normal';fill:#ca7535;stroke:#27466e;stroke-width:0"
       xlink:href="#text2"
       id="path8"
       d="m 108.3125,120.6582 c -1.50523,0 -2.86925,0.23292 -4.08398,0.70313 a 0.36673431,0.36673431 0 0 0 -0.002,0 c -1.20069,0.47241 -2.17466,1.1832 -2.89453,2.12305 -0.72918,0.95196 -1.0918,2.12275 -1.0918,3.46679 0,1.08175 0.20902,2.01541 0.64258,2.7793 a 0.36673431,0.36673431 0 0 0 0.002,0.004 c 0.42011,0.7202 0.96641,1.31621 1.63086,1.7793 a 0.36673431,0.36673431 0 0 0 0.01,0.008 c 0.65859,0.42616 1.34652,0.78513 2.06445,1.07618 a 0.36673431,0.36673431 0 0 0 0.01,0.004 c 0.70019,0.26495 1.36217,0.50029 1.98828,0.70899 a 0.36673431,0.36673431 0 0 0 0.002,0.002 c 0.6176,0.19981 1.1072,0.42302 1.46289,0.66016 a 0.36673431,0.36673431 0 0 0 0.01,0.008 c 0.3197,0.19791 0.41992,0.37622 0.41992,0.64844 0,0.20484 -0.0532,0.34571 -0.17578,0.48437 -0.12234,0.13835 -0.33098,0.27264 -0.64648,0.38086 -7.1e-4,2.4e-4 -0.001,-2.4e-4 -0.002,0 -0.63859,0.20006 -1.55078,0.251 -2.7207,0.12305 -1.16793,-0.12774 -2.47735,-0.44755 -3.92383,-0.9668 a 0.36673431,0.36673431 0 0 0 -0.49023,0.3457 v 2.42578 2.42774 a 0.36673431,0.36673431 0 0 0 0.27148,0.35351 c 1.62543,0.43986 3.22491,0.6804 4.79883,0.71875 1.57528,0.0572 3.00812,-0.11621 4.29492,-0.52539 1.31548,-0.41231 2.38136,-1.08994 3.16406,-2.0332 0.81358,-0.97627 1.21485,-2.24012 1.21485,-3.73437 0,-1.13354 -0.20421,-2.09203 -0.63867,-2.85938 l -0.002,-0.002 c -0.41832,-0.75615 -0.97368,-1.37374 -1.65625,-1.83789 l -0.002,-0.002 c -0.64246,-0.46696 -1.32753,-0.84054 -2.05078,-1.11523 l -0.008,-0.002 c -0.69917,-0.28318 -1.37067,-0.52023 -2.01758,-0.71094 l -0.0117,-0.004 c -0.59546,-0.19935 -1.07714,-0.4168 -1.43555,-0.63867 -0.32396,-0.20055 -0.41797,-0.36867 -0.41797,-0.61719 0,-0.18689 0.0473,-0.31116 0.15625,-0.43554 0.10892,-0.12438 0.29609,-0.247 0.58399,-0.34571 a 0.36673431,0.36673431 0 0 0 0.008,-0.004 c 0.57677,-0.21423 1.39747,-0.2778 2.45313,-0.15039 a 0.36673431,0.36673431 0 0 0 0.006,0.002 c 1.06348,0.10814 2.24237,0.43506 3.5332,0.98828 a 0.36673431,0.36673431 0 0 0 0.51172,-0.33789 v -2.42773 -2.42578 a 0.36673431,0.36673431 0 0 0 -0.26563,-0.35352 c -1.60956,-0.45987 -3.1776,-0.69141 -4.70117,-0.69141 z m -39.595703,0.19727 a 0.36673431,0.36673431 0 0 0 -0.367188,0.36719 v 9.5957 9.5957 a 0.36673431,0.36673431 0 0 0 0.367188,0.36719 h 5.757812 5.757813 a 0.36673431,0.36673431 0 0 0 0.367187,-0.36719 v -2.20117 -2.20117 a 0.36673431,0.36673431 0 0 0 -0.367187,-0.36719 h -3.302735 -2.90625 v -1.29883 -1.29687 h 2.652344 2.992188 a 0.36673431,0.36673431 0 0 0 0.367187,-0.36719 v -2.14453 -2.11719 a 0.36673431,0.36673431 0 0 0 -0.367187,-0.36719 h -2.992188 -2.652344 v -1.01562 -1.04492 h 2.90625 3.302735 a 0.36673431,0.36673431 0 0 0 0.367187,-0.36719 v -2.20117 -2.20117 a 0.36673431,0.36673431 0 0 0 -0.367187,-0.36719 h -5.757813 z m 14.902344,0 a 0.36673431,0.36673431 0 0 0 -0.367188,0.36719 v 9.5957 9.5957 a 0.36673431,0.36673431 0 0 0 0.367188,0.36719 h 2.482421 2.455079 a 0.36673431,0.36673431 0 0 0 0.367187,-0.36719 v -3.21679 -2.85157 h 0.59375 0.769531 c 0.564861,0.99224 1.123798,1.99996 1.671875,3.02539 a 0.36673431,0.36673431 0 0 0 0.0039,0.004 c 0.602124,1.09135 1.193966,2.16296 1.777343,3.2168 a 0.36673431,0.36673431 0 0 0 0.320313,0.18945 h 2.765625 2.765625 a 0.36673431,0.36673431 0 0 0 0.314453,-0.55469 c -0.751763,-1.2592 -1.512516,-2.52841 -2.283203,-3.80664 l -0.002,-0.006 c -0.702193,-1.21123 -1.405208,-2.40157 -2.107422,-3.58008 0.690266,-0.54792 1.271791,-1.20761 1.693359,-2.01562 0.481232,-0.92236 0.720703,-1.97293 0.720703,-3.13281 0,-1.35188 -0.318588,-2.55336 -0.957031,-3.57422 l -0.002,-0.002 c -0.61796,-1.03553 -1.502618,-1.84018 -2.628906,-2.39454 -1.131196,-0.57553 -2.443372,-0.85937 -3.919922,-0.85937 h -3.414063 z m 31.861329,0 a 0.36673431,0.36673431 0 0 0 -0.36719,0.36719 v 2.25781 2.23047 a 0.36673431,0.36673431 0 0 0 0.36719,0.36719 h 2.17383 1.80664 v 6.99804 7.33789 a 0.36673431,0.36673431 0 0 0 0.36719,0.36719 h 2.48242 2.45508 a 0.36673431,0.36673431 0 0 0 0.36718,-0.36719 v -7.33789 -6.99804 h 1.80664 2.14453 a 0.36673431,0.36673431 0 0 0 0.36719,-0.36719 v -2.23047 -2.25781 a 0.36673431,0.36673431 0 0 0 -0.36719,-0.36719 h -6.80078 z m 16.28515,0 a 0.36673431,0.36673431 0 0 0 -0.36718,0.36719 v 9.5957 9.5957 a 0.36673431,0.36673431 0 0 0 0.36718,0.36719 h 2.48243 2.45703 a 0.36673431,0.36673431 0 0 0 0.36719,-0.36719 v -3.21679 -2.85157 h 0.59179 0.77149 c 0.56451,0.99197 1.1217,1.99969 1.66992,3.02539 a 0.36673431,0.36673431 0 0 0 0.004,0.004 c 0.60213,1.09135 1.19397,2.16296 1.77735,3.2168 a 0.36673431,0.36673431 0 0 0 0.32031,0.18945 h 2.76563 2.625 0.14062 2.34375 2.48242 a 0.36673431,0.36673431 0 0 0 0.34961,-0.25781 c 0.18911,-0.60513 0.37065,-1.21064 0.54102,-1.81641 a 0.36673431,0.36673431 0 0 0 0,-0.004 c 0.14442,-0.52951 0.29732,-1.04751 0.45508,-1.5625 h 2.94531 2.9707 c 0.15831,0.51543 0.31278,1.03356 0.45703,1.5625 a 0.36673431,0.36673431 0 0 0 0,0.004 c 0.17017,0.60506 0.34975,1.21059 0.53907,1.81641 a 0.36673431,0.36673431 0 0 0 0.3496,0.25781 h 2.48438 2.48437 a 0.36673431,0.36673431 0 0 0 0.34961,-0.47656 c -0.97834,-3.16083 -1.96772,-6.35784 -2.96484,-9.59375 l 0.002,0.002 c -0.97856,-3.2368 -1.95691,-6.43784 -2.93554,-9.59961 a 0.36673431,0.36673431 0 0 0 -0.34961,-0.25781 h -3.38672 -3.35938 a 0.36673431,0.36673431 0 0 0 -0.34961,0.25781 c -0.97841,3.16106 -1.96566,6.3614 -2.96289,9.59766 a 0.36673431,0.36673431 0 0 0 -0.002,0.002 c -0.88196,2.91728 -1.76428,5.79439 -2.64648,8.65039 -0.58409,-0.97681 -1.16967,-1.95494 -1.76563,-2.94336 l -0.002,-0.006 c -0.70218,-1.21123 -1.4052,-2.40157 -2.10742,-3.58008 0.69026,-0.54792 1.27178,-1.20762 1.69336,-2.01562 0.48122,-0.92236 0.7207,-1.97293 0.7207,-3.13281 0,-1.35151 -0.31646,-2.55306 -0.95508,-3.57422 l -0.002,-0.002 c -0.61815,-1.03584 -1.50472,-1.84025 -2.63086,-2.39454 -1.13119,-0.57553 -2.44338,-0.85937 -3.91992,-0.85937 h -3.41407 z m 36.20899,0 a 0.36673431,0.36673431 0 0 0 -0.36719,0.36719 v 9.5957 9.5957 a 0.36673431,0.36673431 0 0 0 0.36719,0.36719 h 5.75781 5.75586 a 0.36673431,0.36673431 0 0 0 0.36719,-0.36719 v -2.20117 -2.20117 a 0.36673431,0.36673431 0 0 0 -0.36719,-0.36719 h -3.30078 -2.90625 v -1.29883 -1.29687 h 2.65234 2.99024 a 0.36673431,0.36673431 0 0 0 0.36719,-0.36719 v -2.14453 -2.11719 a 0.36673431,0.36673431 0 0 0 -0.36719,-0.36719 h -2.99024 -2.65234 v -1.01562 -1.04492 h 2.90625 3.30078 a 0.36673431,0.36673431 0 0 0 0.36719,-0.36719 v -2.20117 -2.20117 a 0.36673431,0.36673431 0 0 0 -0.36719,-0.36719 h -5.75586 z m 13.91406,0 a 0.36673431,0.36673431 0 0 0 -0.36719,0.36719 v 2.25781 2.23047 a 0.36673431,0.36673431 0 0 0 0.36719,0.36719 h 2.17188 1.80664 v 6.99804 7.33789 a 0.36673431,0.36673431 0 0 0 0.36718,0.36719 h 2.48243 2.45703 a 0.36673431,0.36673431 0 0 0 0.36719,-0.36719 v -7.33789 -6.99804 h 1.80468 2.14453 a 0.36673431,0.36673431 0 0 0 0.36719,-0.36719 v -2.23047 -2.25781 a 0.36673431,0.36673431 0 0 0 -0.36719,-0.36719 h -6.80078 z m 16.2832,0 a 0.36673431,0.36673431 0 0 0 -0.36718,0.36719 v 9.5957 9.5957 a 0.36673431,0.36673431 0 0 0 0.36718,0.36719 h 5.75782 5.75781 a 0.36673431,0.36673431 0 0 0 0.36719,-0.36719 v -2.20117 -2.20117 a 0.36673431,0.36673431 0 0 0 -0.36719,-0.36719 h -3.30273 -2.90625 v -1.29883 -1.29687 h 2.65234 2.99219 a 0.36673431,0.36673431 0 0 0 0.36718,-0.36719 v -2.14453 -2.11719 a 0.36673431,0.36673431 0 0 0 -0.36718,-0.36719 h -2.99219 -2.65234 v -1.01562 -1.04492 h 2.90625 3.30273 a 0.36673431,0.36673431 0 0 0 0.36719,-0.36719 v -2.20117 -2.20117 a 0.36673431,0.36673431 0 0 0 -0.36719,-0.36719 h -5.75781 z m 14.90235,0 a 0.36673431,0.36673431 0 0 0 -0.36719,0.36719 v 9.5957 9.5957 a 0.36673431,0.36673431 0 0 0 0.36719,0.36719 h 2.42578 2.42773 a 0.36673431,0.36673431 0 0 0 0.36719,-0.36719 v -5.41797 -4.00781 c 0.77328,1.38721 1.54741,2.77615 2.33203,4.18555 a 0.36673431,0.36673431 0 0 0 0.002,0.004 c 1.03446,1.82443 2.05018,3.62754 3.04687,5.41407 a 0.36673431,0.36673431 0 0 0 0.32031,0.18945 h 2.48243 2.48437 a 0.36673431,0.36673431 0 0 0 0.36719,-0.36719 v -9.5957 -9.5957 a 0.36673431,0.36673431 0 0 0 -0.36719,-0.36719 h -2.42773 -2.42774 a 0.36673431,0.36673431 0 0 0 -0.36719,0.36719 v 5.41797 4.01953 c -0.77822,-1.39062 -1.55821,-2.78429 -2.35937,-4.19727 l -0.002,-0.004 c -1.01534,-1.82383 -2.02106,-3.62783 -3.01758,-5.41406 a 0.36673431,0.36673431 0 0 0 -0.32031,-0.18945 h -2.48438 z m -124.150392,5.19336 h 0.564453 0.931641 c 0.626391,0 1.045265,0.16511 1.34375,0.47851 a 0.36673431,0.36673431 0 0 0 0.0059,0.008 c 0.329427,0.32942 0.484375,0.71215 0.484375,1.23437 0,0.50693 -0.144629,0.90482 -0.445312,1.25391 -6.1e-4,7.1e-4 -0.0013,0.001 -0.002,0.002 -0.291934,0.31962 -0.630304,0.4668 -1.105469,0.4668 h -1.072266 -0.705078 v -1.72266 z m 48.148442,0 h 0.5625 0.93164 c 0.62638,0 1.04527,0.16511 1.34375,0.47851 a 0.36673431,0.36673431 0 0 0 0.006,0.008 c 0.32942,0.32942 0.48437,0.71215 0.48437,1.23437 0,0.50775 -0.14311,0.90532 -0.44336,1.25391 -6.1e-4,7.1e-4 -0.001,0.001 -0.002,0.002 -0.29194,0.31962 -0.6303,0.4668 -1.10547,0.4668 h -1.07227 -0.70507 v -1.72266 z m 19.80664,1.08398 c 0.21226,0.72526 0.42063,1.44831 0.64062,2.18164 0.29103,0.97009 0.57242,1.93047 0.84961,2.88672 h -1.51367 -1.48633 c 0.27662,-0.95429 0.55725,-1.91278 0.84766,-2.88086 l 0.002,-0.006 c 0.23221,-0.7334 0.44387,-1.45636 0.66016,-2.18164 z" />
    <path
       d="m 68.716943,140.41397 q 0,-4.74133 0,-9.59555 0,-4.85422 0,-9.59555 2.850442,0 5.757329,0 2.906886,0 5.757328,0 0,1.07245 0,2.20134 0,1.12888 0,2.20133 -1.636887,0 -3.301997,0 -1.636888,0 -3.273775,0 0,0.70555 0,1.41111 0,0.67733 0,1.38289 1.495776,0 3.019775,0 1.523999,0 2.991553,0 0,1.04422 0,2.11666 0,1.07244 0,2.14489 -1.467554,0 -2.991553,0 -1.523999,0 -3.019775,0 0,0.81844 0,1.66511 0,0.84666 0,1.66511 1.636887,0 3.273775,0 1.66511,0 3.301997,0 0,1.07244 0,2.20133 0,1.12889 0,2.20133 -2.850442,0 -5.757328,0 -2.906887,0 -5.757329,0 z m 14.901318,0 q 0,-4.74133 0,-9.59555 0,-4.85422 0,-9.59555 1.693332,0 3.386664,0 1.721555,0 3.414887,0 2.144887,0 3.753552,0.81845 1.608666,0.79022 2.483554,2.25777 0.90311,1.43934 0.90311,3.38667 0,1.66511 -0.677333,2.96333 -0.677332,1.29822 -1.834443,2.11666 1.128888,1.89089 2.257776,3.83822 1.157111,1.91911 2.285999,3.81 -1.382888,0 -2.765776,0 -1.382888,0 -2.765776,0 -0.874888,-1.58044 -1.777998,-3.21733 -0.874888,-1.63689 -1.777999,-3.21733 -0.479777,0 -0.987777,0 -0.479777,0 -0.959555,0 0,1.58044 0,3.21733 0,1.63689 0,3.21733 -1.213554,0 -2.455331,0 -1.241777,0 -2.483554,0 z m 6.801551,-14.73199 q -0.451556,0 -0.931333,0 -0.451555,0 -0.931333,0 0,1.04422 0,2.08845 0,1.04422 0,2.08844 0.536222,0 1.072444,0 0.536222,0 1.072444,0 0.846666,0 1.382887,-0.59267 0.536222,-0.62089 0.536222,-1.49577 0,-0.90312 -0.592666,-1.49578 -0.564444,-0.59267 -1.608665,-0.59267 z m 23.480858,8.94644 q 0,0 0,0 0,0 0,0 0,2.14489 -1.12889,3.49955 -1.10067,1.32645 -2.99155,1.91911 -1.86267,0.59267 -4.17689,0.508 -2.31422,-0.0564 -4.71311,-0.70555 0,-1.21356 0,-2.42711 0,-1.21356 0,-2.42711 2.20133,0.79022 4.00756,0.98778 1.80622,0.19755 2.87866,-0.14112 1.07244,-0.36688 1.07244,-1.21355 0,-0.59267 -0.59266,-0.95955 -0.59267,-0.39512 -1.55222,-0.70556 -0.93134,-0.31044 -1.97556,-0.70555 -1.04422,-0.42334 -2.00377,-1.04423 -0.93134,-0.64911 -1.524,-1.66511 -0.59267,-1.04422 -0.59267,-2.59644 0,-1.91911 1.016,-3.24555 1.016,-1.32645 2.73755,-2.00378 1.74978,-0.67733 3.95111,-0.67733 2.22956,0 4.60022,0.67733 0,1.21356 0,2.42711 0,1.21356 0,2.42711 -1.97555,-0.84667 -3.64066,-1.016 -1.63689,-0.19755 -2.62467,0.16933 -0.98777,0.33867 -0.98777,1.12889 0,0.56445 0.59266,0.93134 0.59267,0.36688 1.524,0.67733 0.95955,0.28222 2.00378,0.70555 1.04422,0.39511 1.97555,1.07245 0.95956,0.64911 1.55222,1.72155 0.59267,1.04422 0.59267,2.68111 z m 5.92666,5.78555 q 0,-3.64066 0,-7.33777 0,-3.72533 0,-7.366 -1.07244,0 -2.17311,0 -1.10067,0 -2.17311,0 0,-1.10066 0,-2.22955 0,-1.15711 0,-2.25778 3.35844,0 6.80155,0 3.44311,0 6.80155,0 0,1.10067 0,2.25778 0,1.12889 0,2.22955 -1.04422,0 -2.14489,0 -1.10066,0 -2.1731,0 0,3.64067 0,7.366 0,3.69711 0,7.33777 -1.21356,0 -2.45534,0 -1.24177,0 -2.48355,0 z m 11.93799,0 q 0,-4.74133 0,-9.59555 0,-4.85422 0,-9.59555 1.69333,0 3.38666,0 1.72156,0 3.41489,0 2.14488,0 3.75355,0.81845 1.60867,0.79022 2.48355,2.25777 0.90311,1.43934 0.90311,3.38667 0,1.66511 -0.67733,2.96333 -0.67733,1.29822 -1.83444,2.11666 1.12889,1.89089 2.25777,3.83822 1.15711,1.91911 2.286,3.81 -1.38289,0 -2.76577,0 -1.38289,0 -2.76578,0 -0.87489,-1.58044 -1.778,-3.21733 -0.87489,-1.63689 -1.778,-3.21733 -0.47977,0 -0.98777,0 -0.47978,0 -0.95956,0 0,1.58044 0,3.21733 0,1.63689 0,3.21733 -1.21355,0 -2.45533,0 -1.24178,0 -2.48355,0 z m 6.80155,-14.73199 q -0.45156,0 -0.93134,0 -0.45155,0 -0.93133,0 0,1.04422 0,2.08845 0,1.04422 0,2.08844 0.53622,0 1.07245,0 0.53622,0 1.07244,0 0.84667,0 1.38289,-0.59267 0.53622,-0.62089 0.53622,-1.49577 0,-0.90312 -0.59267,-1.49578 -0.56444,-0.59267 -1.60866,-0.59267 z m 9.03108,14.73199 q 1.46756,-4.74133 2.93511,-9.59555 1.49578,-4.85422 2.96333,-9.59555 1.66511,0 3.35845,0 1.72155,0 3.38666,0 1.46755,4.74133 2.93511,9.59555 1.49578,4.85422 2.96333,9.59555 -1.21356,0 -2.48355,0 -1.24178,0 -2.48356,0 -0.28222,-0.90311 -0.53622,-1.80622 -0.254,-0.93133 -0.53622,-1.83444 -1.60867,0 -3.24555,0 -1.60867,0 -3.21734,0 -0.28222,0.90311 -0.53622,1.83444 -0.254,0.90311 -0.53622,1.80622 -1.21355,0 -2.48355,0 -1.24178,0 -2.48356,0 z m 7.28133,-7.84577 q 0.98778,0 1.97556,0 1.01599,0 2.00377,0 -0.47978,-1.66511 -0.98778,-3.35844 -0.50799,-1.69333 -0.98777,-3.35844 -0.47978,1.66511 -1.016,3.35844 -0.508,1.69333 -0.98778,3.35844 z m 13.09509,7.84577 q 0,-4.74133 0,-9.59555 0,-4.85422 0,-9.59555 2.85045,0 5.75733,0 2.90689,0 5.75733,0 0,1.07245 0,2.20134 0,1.12888 0,2.20133 -1.63689,0 -3.302,0 -1.63688,0 -3.27377,0 0,0.70555 0,1.41111 0,0.67733 0,1.38289 1.49578,0 3.01977,0 1.524,0 2.99156,0 0,1.04422 0,2.11666 0,1.07244 0,2.14489 -1.46756,0 -2.99156,0 -1.52399,0 -3.01977,0 0,0.81844 0,1.66511 0,0.84666 0,1.66511 1.63689,0 3.27377,0 1.66511,0 3.302,0 0,1.07244 0,2.20133 0,1.12889 0,2.20133 -2.85044,0 -5.75733,0 -2.90688,0 -5.75733,0 z m 18.25977,0 q 0,-3.64066 0,-7.33777 0,-3.72533 0,-7.366 -1.07245,0 -2.17311,0 -1.10067,0 -2.17311,0 0,-1.10066 0,-2.22955 0,-1.15711 0,-2.25778 3.35844,0 6.80155,0 3.44311,0 6.80155,0 0,1.10067 0,2.25778 0,1.12889 0,2.22955 -1.04422,0 -2.14489,0 -1.10066,0 -2.17311,0 0,3.64067 0,7.366 0,3.69711 0,7.33777 -1.21355,0 -2.45533,0 -1.24178,0 -2.48355,0 z m 11.93797,0 q 0,-4.74133 0,-9.59555 0,-4.85422 0,-9.59555 2.85044,0 5.75733,0 2.90689,0 5.75733,0 0,1.07245 0,2.20134 0,1.12888 0,2.20133 -1.63689,0 -3.302,0 -1.63688,0 -3.27377,0 0,0.70555 0,1.41111 0,0.67733 0,1.38289 1.49577,0 3.01977,0 1.524,0 2.99156,0 0,1.04422 0,2.11666 0,1.07244 0,2.14489 -1.46756,0 -2.99156,0 -1.524,0 -3.01977,0 0,0.81844 0,1.66511 0,0.84666 0,1.66511 1.63689,0 3.27377,0 1.66511,0 3.302,0 0,1.07244 0,2.20133 0,1.12889 0,2.20133 -2.85044,0 -5.75733,0 -2.90689,0 -5.75733,0 z m 14.90132,0 q 0,-4.74133 0,-9.59555 0,-4.85422 0,-9.59555 1.24178,0 2.48356,0 1.27,0 2.48355,0 1.49578,2.68111 3.01978,5.41867 1.55222,2.73755 3.04799,5.41866 0,-2.68111 0,-5.41866 0,-2.73756 0,-5.41867 1.21356,0 2.42711,0 1.21356,0 2.42711,0 0,4.74133 0,9.59555 0,4.85422 0,9.59555 -1.21355,0 -2.48355,0 -1.24178,0 -2.48355,0 -1.49578,-2.68111 -3.048,-5.41866 -1.524,-2.73755 -3.01978,-5.41866 0,2.68111 0,5.41866 0,2.73755 0,5.41866 -1.21355,0 -2.42711,0 -1.21355,0 -2.42711,0 z"
       id="text2"
       style="font-size:28.2222px;font-family:'Tilt Warp';-inkscape-font-specification:'Tilt Warp, Normal';fill:#ca7535;stroke:#27466e;stroke-width:0"
       aria-label="ERSTRAETEN" />
    <path
       style="font-size:24.6944px;font-family:'Tilt Warp';-inkscape-font-specification:'Tilt Warp, Normal';fill:#ca7535;stroke:#27466e;stroke-width:0"
       xlink:href="#text3"
       id="path7"
       d="m 141.65234,97.806641 a 0.3386516,0.3386516 0 0 0 -0.33789,0.33789 v 8.396489 8.39648 a 0.3386516,0.3386516 0 0 0 0.33789,0.33789 h 2.05078 2.0254 a 0.3386516,0.3386516 0 0 0 0.33789,-0.33789 v -5.58008 -3.00195 c 0.27163,1.02803 0.54246,2.04525 0.81445,3.08789 0.49404,1.87736 0.99038,3.7378 1.48437,5.58203 a 0.3386516,0.3386516 0 0 0 0.32618,0.25 h 1.87695 1.87695 a 0.3386516,0.3386516 0 0 0 0.32813,-0.25195 c 0.49379,-1.8764 0.99368,-3.7685 1.5039,-5.67774 a 0.3386516,0.3386516 0 0 0 0.002,-0.002 c 0.28466,-1.07434 0.56046,-2.12252 0.83984,-3.18164 v 3.0957 5.67969 a 0.3386516,0.3386516 0 0 0 0.33789,0.33789 h 2.07422 2.09961 a 0.3386516,0.3386516 0 0 0 0.33789,-0.33984 c -0.0165,-2.76571 -0.0324,-5.56484 -0.0488,-8.39649 -0.0165,-2.83174 -0.0343,-5.6308 -0.0508,-8.396482 a 0.3386516,0.3386516 0 0 0 -0.33789,-0.335937 h -3.03711 -3.0625 a 0.3386516,0.3386516 0 0 0 -0.32617,0.248046 c -0.46098,1.67926 -0.92893,3.385053 -1.40625,5.113283 a 0.3386516,0.3386516 0 0 0 0,0.002 c -0.35299,1.31109 -0.70563,2.60305 -1.0586,3.89453 -0.35607,-1.29134 -0.71261,-2.58372 -1.07812,-3.89453 l -0.002,-0.004 c -0.46109,-1.72894 -0.93065,-3.433617 -1.40821,-5.113286 a 0.3386516,0.3386516 0 0 0 -0.32617,-0.246093 h -3.08594 z m 21.18946,0 a 0.3386516,0.3386516 0 0 0 -0.33789,0.33789 v 8.396489 8.39648 a 0.3386516,0.3386516 0 0 0 0.33789,0.33789 h 5.03711 5.03711 a 0.3386516,0.3386516 0 0 0 0.33789,-0.33789 v -1.92578 -1.92578 a 0.3386516,0.3386516 0 0 0 -0.33789,-0.33789 H 170.02734 167.5 v -1.11914 -1.11914 h 2.30469 2.61718 a 0.3386516,0.3386516 0 0 0 0.3379,-0.33789 v -1.87696 -1.85351 a 0.3386516,0.3386516 0 0 0 -0.3379,-0.33789 H 169.80469 167.5 v -0.8711 -0.89648 h 2.52734 2.88868 a 0.3386516,0.3386516 0 0 0 0.33789,-0.33789 v -1.92578 -1.927739 a 0.3386516,0.3386516 0 0 0 -0.33789,-0.33789 h -5.03711 z m 12.17382,0 a 0.3386516,0.3386516 0 0 0 -0.33789,0.33789 v 1.976559 1.95118 a 0.3386516,0.3386516 0 0 0 0.33789,0.33789 h 1.9004 1.56445 v 6.10742 6.41992 a 0.3386516,0.3386516 0 0 0 0.33789,0.33789 h 2.17383 2.14648 a 0.3386516,0.3386516 0 0 0 0.33789,-0.33789 v -6.41992 -6.10742 h 1.56446 1.87695 a 0.3386516,0.3386516 0 0 0 0.33789,-0.33789 v -1.95118 -1.976559 a 0.3386516,0.3386516 0 0 0 -0.33789,-0.33789 h -5.95117 z" />
    <path
       d="m 141.65305,114.93747 q 0,-4.14866 0,-8.3961 0,-4.24743 0,-8.396093 1.53105,0 3.0868,0 1.55575,0 3.0868,0 0.71614,2.518833 1.40758,5.111743 0.71614,2.56822 1.40758,5.08704 0.69144,-2.51882 1.38289,-5.08704 0.71613,-2.59291 1.40758,-5.111743 1.53105,0 3.0621,0 1.53106,0 3.03741,0 0.0247,4.148663 0.0494,8.396093 0.0247,4.24744 0.0494,8.3961 -1.03716,0 -2.09902,0 -1.03717,0 -2.07433,0 0,-2.81516 0,-5.67971 0,-2.88925 0,-5.70441 -0.74083,2.81516 -1.50636,5.70441 -0.76553,2.86455 -1.50636,5.67971 -0.91369,0 -1.87677,0 -0.93839,0 -1.87678,0 -0.74083,-2.76577 -1.48166,-5.58094 -0.74083,-2.83985 -1.48167,-5.60562 0,2.76577 0,5.60562 0,2.81517 0,5.58094 -0.98777,0 -2.02494,0 -1.03716,0 -2.04963,0 z m 21.18779,0 q 0,-4.14866 0,-8.3961 0,-4.24743 0,-8.396093 2.49413,0 5.03766,0 2.54352,0 5.03766,0 0,0.938387 0,1.926163 0,0.98778 0,1.92616 -1.43228,0 -2.88925,0 -1.43227,0 -2.86455,0 0,0.61736 0,1.23472 0,0.59267 0,1.21003 1.3088,0 2.6423,0 1.3335,0 2.61761,0 0,0.91369 0,1.85208 0,0.93839 0,1.87677 -1.28411,0 -2.61761,0 -1.3335,0 -2.6423,0 0,0.71614 0,1.45697 0,0.74084 0,1.45697 1.43228,0 2.86455,0 1.45697,0 2.88925,0 0,0.93839 0,1.92617 0,0.98777 0,1.92616 -2.49414,0 -5.03766,0 -2.54353,0 -5.03766,0 z m 15.97728,0 q 0,-3.18558 0,-6.42054 0,-3.25967 0,-6.44524 -0.93839,0 -1.90147,0 -0.96309,0 -1.90147,0 0,-0.96308 0,-1.95086 0,-1.012471 0,-1.975553 2.93863,0 5.95135,0 3.01271,0 5.95135,0 0,0.963082 0,1.975553 0,0.98778 0,1.95086 -0.91369,0 -1.87678,0 -0.96308,0 -1.90146,0 0,3.18557 0,6.44524 0,3.23496 0,6.42054 -1.06186,0 -2.14842,0 -1.08655,0 -2.1731,0 z"
       id="text3"
       style="font-size:24.6944px;font-family:'Tilt Warp';-inkscape-font-specification:'Tilt Warp, Normal';fill:#ca7535;stroke:#27466e;stroke-width:0"
       aria-label="MET" />
    <path
       style="font-size:28.2223px;font-family:'Tilt Warp';-inkscape-font-specification:'Tilt Warp, Normal';fill:#ca7535;stroke:#27466e;stroke-width:0"
       xlink:href="#text4"
       id="path6"
       d="m 141.65234,72.410156 a 0.45740451,0.45740451 0 0 0 -0.45703,0.457031 v 9.59375 9.595704 a 0.45740451,0.45740451 0 0 0 0.45703,0.457031 h 2.48438 2.45508 a 0.45740451,0.45740451 0 0 0 0.45703,-0.457031 V 89.09375 86.587891 h 0.75586 1.24218 c 1.36068,0 2.59876,-0.28833 3.68555,-0.871094 l 0.004,-0.002 c 1.10134,-0.581596 1.97632,-1.417411 2.59961,-2.480469 v -0.002 c 0.64731,-1.072807 0.9707,-2.318732 0.9707,-3.705078 0,-1.404839 -0.32203,-2.66196 -0.9707,-3.736328 -0.64387,-1.066396 -1.55045,-1.901523 -2.68946,-2.482422 -1.14769,-0.604049 -2.48619,-0.898438 -3.99414,-0.898438 h -3.5 z m 16.73633,0 a 0.45740451,0.45740451 0 0 0 -0.45703,0.457031 v 9.59375 9.595704 a 0.45740451,0.45740451 0 0 0 0.45703,0.457031 h 2.48438 2.45507 a 0.45740451,0.45740451 0 0 0 0.45704,-0.457031 v -3.216797 -2.759766 h 0.50195 0.71875 c 0.55542,0.976761 1.10305,1.965172 1.64258,2.974609 a 0.45740451,0.45740451 0 0 0 0.004,0.0059 c 0.60235,1.091742 1.1961,2.163277 1.7793,3.216797 a 0.45740451,0.45740451 0 0 0 0.40039,0.236328 h 2.76563 2.62304 0.14258 2.3418 2.48437 a 0.45740451,0.45740451 0 0 0 0.4375,-0.320313 c 0.18953,-0.606474 0.36667,-1.212316 0.53711,-1.818359 a 0.45740451,0.45740451 0 0 0 0.002,-0.002 c 0.1383,-0.507115 0.28825,-1.005133 0.43945,-1.5 h 2.87305 2.90234 c 0.15058,0.494379 0.29901,0.992208 0.4375,1.5 a 0.45740451,0.45740451 0 0 0 0.002,0.002 c 0.17069,0.606919 0.3498,1.212734 0.53906,1.818359 a 0.45740451,0.45740451 0 0 0 0.4375,0.320313 h 2.48243 2.48437 a 0.45740451,0.45740451 0 0 0 0.4375,-0.591797 c -0.97812,-3.160081 -1.96593,-6.358348 -2.96289,-9.59375 v -0.002 c -0.9785,-3.236563 -1.95708,-6.432546 -2.93555,-9.59375 a 0.45740451,0.45740451 0 0 0 -0.4375,-0.322266 h -3.38671 -3.35938 a 0.45740451,0.45740451 0 0 0 -0.4375,0.322266 c -0.97842,3.161076 -1.96564,6.357403 -2.96289,9.59375 a 0.45740451,0.45740451 0 0 0 0,0.002 c -0.86178,2.850488 -1.72415,5.661289 -2.58594,8.453125 -0.54997,-0.917451 -1.10082,-1.834041 -1.66015,-2.761719 l -0.004,-0.0078 c -0.68915,-1.188733 -1.37901,-2.359823 -2.06836,-3.517578 0.67124,-0.546458 1.24576,-1.195989 1.66016,-1.990235 0.48882,-0.936904 0.72656,-2.002164 0.72656,-3.173828 0,-1.368082 -0.32177,-2.588909 -0.97266,-3.626953 -0.62782,-1.049951 -1.52904,-1.867302 -2.66992,-2.427734 -1.14429,-0.580957 -2.46738,-0.865235 -3.95312,-0.865235 h -3.41602 z m 34.375,0 a 0.45740451,0.45740451 0 0 0 -0.45703,0.457031 v 2.25586 2.230469 a 0.45740451,0.45740451 0 0 0 0.45703,0.457031 h 2.17383 1.71484 v 6.908203 7.337891 a 0.45740451,0.45740451 0 0 0 0.45703,0.457031 h 2.48438 2.45508 a 0.45740451,0.45740451 0 0 0 0.45703,-0.457031 V 84.71875 77.810547 h 1.7168 2.14453 a 0.45740451,0.45740451 0 0 0 0.45703,-0.457031 v -2.230469 -2.25586 a 0.45740451,0.45740451 0 0 0 -0.45703,-0.457031 h -6.80274 z m 16.28516,0 a 0.45740451,0.45740451 0 0 0 -0.45703,0.457031 v 9.59375 9.595704 a 0.45740451,0.45740451 0 0 0 0.45703,0.457031 h 5.75586 5.75781 a 0.45740451,0.45740451 0 0 0 0.45703,-0.457031 v -2.201172 -2.201172 a 0.45740451,0.45740451 0 0 0 -0.45703,-0.457031 h -3.30273 -2.81641 V 85.990234 84.78125 h 2.5625 2.99219 a 0.45740451,0.45740451 0 0 0 0.45703,-0.457031 V 82.179687 80.0625 a 0.45740451,0.45740451 0 0 0 -0.45703,-0.457031 h -2.99219 -2.5625 v -0.925782 -0.953125 h 2.81641 3.30273 a 0.45740451,0.45740451 0 0 0 0.45703,-0.457031 v -2.201172 -2.201172 a 0.45740451,0.45740451 0 0 0 -0.45703,-0.457031 h -5.75781 z m 14.90039,0 a 0.45740451,0.45740451 0 0 0 -0.45703,0.457031 v 9.59375 9.595704 a 0.45740451,0.45740451 0 0 0 0.45703,0.457031 h 2.42773 2.42578 a 0.45740451,0.45740451 0 0 0 0.45704,-0.457031 v -5.417969 -3.660156 c 0.71895,1.28839 1.43606,2.575124 2.16406,3.882812 a 0.45740451,0.45740451 0 0 0 0.002,0.0039 c 1.03426,1.824067 2.05017,3.627511 3.04688,5.414063 a 0.45740451,0.45740451 0 0 0 0.39843,0.234375 h 2.48438 2.48242 a 0.45740451,0.45740451 0 0 0 0.45703,-0.457031 v -9.595704 -9.59375 a 0.45740451,0.45740451 0 0 0 -0.45703,-0.457031 h -2.42578 -2.42774 a 0.45740451,0.45740451 0 0 0 -0.45703,0.457031 v 5.417969 3.673828 c -0.72489,-1.292681 -1.4474,-2.584322 -2.1914,-3.896484 l -0.002,-0.0039 c -1.01534,-1.823866 -2.02298,-3.627799 -3.01953,-5.414063 a 0.45740451,0.45740451 0 0 0 -0.39843,-0.234375 h -2.48243 z m -76.90039,5.34375 h 0.55859 1.04492 c 0.62299,0 1.02358,0.168579 1.32618,0.5 0.31708,0.347281 0.47461,0.763531 0.4746,1.330078 0,0.550022 -0.14976,0.957774 -0.45312,1.306641 a 0.45740451,0.45740451 0 0 0 -0.008,0.0098 c -0.27971,0.338598 -0.58912,0.484375 -1.0586,0.484375 H 147.75 147.04883 v -1.800782 z m 16.73633,0.0293 h 0.47461 0.93164 c 0.61,0 0.99612,0.155985 1.27539,0.449219 a 0.45740451,0.45740451 0 0 0 0.008,0.0098 c 0.31319,0.313189 0.46094,0.670397 0.46094,1.171875 0,0.486621 -0.13697,0.859121 -0.42188,1.191407 -0.27641,0.304518 -0.58392,0.439453 -1.04101,0.439453 h -1.07227 -0.61523 v -1.63086 z M 183.5,79.09375 c 0.18484,0.629805 0.36601,1.255185 0.55664,1.890625 0.27935,0.931163 0.5479,1.851755 0.81445,2.769531 h -1.39257 -1.36329 c 0.26542,-0.91544 0.53214,-1.833604 0.81055,-2.761719 l 0.002,-0.0078 c 0.20114,-0.635309 0.38311,-1.261012 0.57227,-1.890625 z" />
    <path
       d="m 141.65305,92.057396 v -9.595582 -9.595582 h 3.49957 3.49956 c 1.44875,0 2.70934,0.282223 3.78179,0.846669 1.07245,0.545631 1.90971,1.317041 2.51179,2.314229 0.60207,0.997188 0.90311,2.16371 0.90311,3.499565 0,1.317041 -0.30104,2.474155 -0.90311,3.471343 -0.58327,0.997188 -1.39231,1.768597 -2.42712,2.314228 -1.01601,0.545631 -2.17312,0.818447 -3.47134,0.818447 h -1.24179 -1.21355 v 2.963341 2.963342 h -2.45534 z m 6.99913,-14.760263 h -1.04422 -1.016 v 2.286007 2.257783 h 1.15711 1.18534 c 0.58326,0 1.05363,-0.216371 1.41111,-0.649112 0.3763,-0.432742 0.56445,-0.968966 0.56445,-1.608671 0,-0.658521 -0.19756,-1.204152 -0.59267,-1.636894 -0.39511,-0.432742 -0.95015,-0.649113 -1.66512,-0.649113 z m 9.73671,14.760263 v -9.595582 -9.595582 h 3.38667 3.4149 c 1.42993,0 2.68112,0.272816 3.75357,0.818447 1.07245,0.526816 1.9003,1.279411 2.48356,2.257784 0.60208,0.959558 0.90312,2.08845 0.90312,3.386676 0,1.110077 -0.22578,2.097858 -0.67734,2.963341 -0.45156,0.865484 -1.06304,1.571042 -1.83445,2.116673 0.75259,1.260596 1.50519,2.540007 2.25778,3.838232 0.77141,1.279411 1.53342,2.549415 2.28601,3.810011 h -2.76578 -2.76579 c -0.58326,-1.053633 -1.17593,-2.12608 -1.77801,-3.217342 -0.58326,-1.091263 -1.17593,-2.16371 -1.778,-3.217342 h -0.98778 -0.95956 v 3.217342 3.217342 h -2.45534 z m 6.80157,-14.73204 h -0.93133 -0.93134 v 2.08845 2.08845 h 1.07245 1.07245 c 0.56445,0 1.02541,-0.197556 1.38289,-0.592668 0.35748,-0.413927 0.53622,-0.912521 0.53622,-1.495782 0,-0.602076 -0.19756,-1.10067 -0.59267,-1.495782 -0.37629,-0.395112 -0.91252,-0.592668 -1.60867,-0.592668 z m 9.03112,14.73204 c 0.97837,-3.160897 1.95675,-6.359425 2.93512,-9.595582 0.99719,-3.236157 1.98497,-6.434684 2.96334,-9.595582 h 3.35846 3.38667 c 0.97837,3.160898 1.95675,6.359425 2.93512,9.595582 0.99719,3.236157 1.98498,6.434685 2.96335,9.595582 h -2.48357 -2.48356 c -0.18815,-0.602076 -0.36689,-1.204152 -0.53622,-1.806227 -0.16933,-0.620891 -0.34808,-1.232374 -0.53623,-1.83445 h -3.24556 -3.21734 c -0.18815,0.602076 -0.3669,1.213559 -0.53623,1.83445 -0.16933,0.602075 -0.34807,1.204151 -0.53622,1.806227 h -2.48356 z m 7.28136,-7.845799 h 1.97556 2.00378 c -0.31985,-1.110077 -0.64911,-2.229562 -0.98778,-3.358454 -0.33867,-1.128892 -0.66793,-2.248377 -0.98778,-3.358454 -0.31985,1.110077 -0.65852,2.229562 -1.016,3.358454 -0.33867,1.128892 -0.66793,2.248377 -0.98778,3.358454 z m 15.6069,7.845799 v -7.337798 -7.36602 h -2.17312 -2.17312 v -2.229562 -2.257784 h 6.80158 6.80157 v 2.257784 2.229562 h -2.14489 -2.17312 v 7.36602 7.337798 h -2.45534 z m 11.93803,0 v -9.595582 -9.595582 h 5.75735 5.75734 v 2.20134 2.201339 h -3.302 -3.27379 v 1.411115 1.382893 h 3.01979 2.99156 v 2.116672 2.144895 h -2.99156 -3.01979 v 1.665116 1.665115 h 3.27379 3.302 v 2.20134 2.201339 h -5.75734 z m 14.90136,0 v -9.595582 -9.595582 h 2.48357 2.48356 c 0.99719,1.787413 2.00378,3.59364 3.01978,5.418682 1.03482,1.825042 2.05082,3.631269 3.04801,5.418681 v -5.418681 -5.418682 h 2.42712 2.42712 v 9.595582 9.595582 h -2.48356 -2.48357 c -0.99719,-1.787413 -2.01319,-3.59364 -3.048,-5.418682 -1.01601,-1.825042 -2.0226,-3.631269 -3.01979,-5.418681 v 5.418681 5.418682 h -2.42712 z"
       id="text4"
       style="font-size:28.2223px;font-family:'Tilt Warp';-inkscape-font-specification:'Tilt Warp, Normal';fill:#ca7535;stroke:#27466e;stroke-width:0"
       aria-label="PRATEN" />
  </g>
</svg>
